<svg width="20" height="18" viewBox="0 0 20 18" fill="none" xmlns="http://www.w3.org/2000/svg">
<path d="M15 13.99C13.65 13.99 12.8 14.41 12.05 14.79C11.4 15.12 10.87 15.39 10 15.39C9.1 15.39 8.6 15.14 7.95 14.79C7.2 14.41 6.38 13.99 5 13.99C3.62 13.99 2.8 14.41 2.05 14.79C1.62 15.01 1.24 15.2 0.78 15.31C0.33 15.41 0 15.77 0 16.22V16.32C0 16.92 0.56 17.35 1.14 17.23C1.88 17.08 2.44 16.8 2.95 16.54C3.6 16.21 4.12 15.94 5 15.94C5.88 15.94 6.4 16.19 7.05 16.54C7.8 16.92 8.62 17.34 10 17.34C11.38 17.34 12.2 16.92 12.95 16.54C13.6 16.21 14.13 15.94 15 15.94C15.9 15.94 16.4 16.19 17.05 16.54C17.57 16.8 18.13 17.09 18.88 17.24C19.0151 17.2663 19.1543 17.2627 19.2879 17.2294C19.4214 17.196 19.546 17.1337 19.6528 17.0469C19.7597 16.9601 19.8461 16.8509 19.9061 16.727C19.9661 16.6032 19.9982 16.4676 20 16.33V16.24C20 15.78 19.66 15.42 19.21 15.32C18.75 15.22 18.38 15.03 17.95 14.8C17.2 14.41 16.35 13.99 15 13.99ZM15 9.53997C13.65 9.53997 12.8 9.96997 12.05 10.34C11.4 10.66 10.87 10.94 10 10.94C9.1 10.94 8.6 10.69 7.95 10.34C7.2 9.95997 6.38 9.53997 5 9.53997C3.62 9.53997 2.8 9.96997 2.05 10.34C1.62 10.55 1.24 10.75 0.77 10.86C0.33 10.96 0 11.32 0 11.77V11.87C5.71478e-05 12.0082 0.0309224 12.1447 0.0903506 12.2695C0.149779 12.3942 0.236275 12.5042 0.343549 12.5914C0.450822 12.6785 0.576174 12.7407 0.710487 12.7733C0.8448 12.8059 0.984697 12.8082 1.12 12.78C1.87 12.63 2.43 12.34 2.95 12.09C3.6 11.74 4.1 11.49 5 11.49C5.9 11.49 6.4 11.74 7.05 12.09C7.8 12.47 8.62 12.89 10 12.89C11.38 12.89 12.2 12.46 12.95 12.09C13.6 11.74 14.1 11.49 15 11.49C15.9 11.49 16.4 11.74 17.05 12.09C17.57 12.35 18.13 12.64 18.88 12.79C19.0159 12.8165 19.156 12.8127 19.2903 12.7787C19.4245 12.7448 19.5497 12.6816 19.6567 12.5937C19.7637 12.5058 19.8499 12.3954 19.9093 12.2703C19.9686 12.1451 19.9996 12.0085 20 11.87V11.78C20 11.32 19.66 10.96 19.21 10.86C18.75 10.76 18.38 10.57 17.95 10.34C17.2 9.95997 16.35 9.53997 15 9.53997ZM17.95 1.45997C17.2 1.07997 16.37 0.659973 15 0.659973C13.63 0.659973 12.8 1.07997 12.05 1.45997C11.4 1.77997 10.87 2.05997 10 2.05997C9.1 2.05997 8.6 1.80997 7.95 1.45997C7.2 1.08997 6.38 0.659973 5 0.659973C3.62 0.659973 2.8 1.07997 2.05 1.45997C1.62 1.67997 1.24 1.86997 0.78 1.97997C0.33 2.07997 0 2.43997 0 2.88997V2.95997C0 3.55997 0.54 3.99997 1.12 3.87997C1.87 3.72997 2.43 3.43997 2.95 3.18997C3.6 2.85997 4.12 2.58997 5 2.58997C5.88 2.58997 6.4 2.83997 7.05 3.18997C7.8 3.56997 8.62 3.98997 10 3.98997C11.38 3.98997 12.2 3.55997 12.95 3.18997C13.6 2.86997 14.13 2.58997 15 2.58997C15.9 2.58997 16.4 2.83997 17.05 3.18997C17.57 3.44997 18.13 3.73997 18.88 3.88997C19.0159 3.91649 19.156 3.91265 19.2903 3.87873C19.4245 3.8448 19.5497 3.78163 19.6567 3.69373C19.7637 3.60583 19.8499 3.49537 19.9093 3.37026C19.9686 3.24514 19.9996 3.10845 20 2.96997V2.87997C20 2.41997 19.66 2.05997 19.21 1.95997C18.75 1.85997 18.38 1.67997 17.95 1.45997ZM15 5.08997C13.65 5.08997 12.8 5.51997 12.05 5.88997C11.4 6.23997 10.9 6.48997 10 6.48997C9.1 6.48997 8.6 6.23997 7.95 5.88997C7.2 5.50997 6.38 5.08997 5 5.08997C3.62 5.08997 2.8 5.51997 2.05 5.88997C1.62 6.11997 1.25 6.30997 0.79 6.40997C0.34 6.50997 0 6.86997 0 7.32997V7.41997C5.71478e-05 7.55819 0.0309224 7.69466 0.0903506 7.81945C0.149779 7.94424 0.236275 8.05421 0.343549 8.14137C0.450822 8.22853 0.576174 8.29069 0.710487 8.32331C0.8448 8.35594 0.984697 8.35821 1.12 8.32997C1.87 8.17997 2.43 7.88997 2.95 7.63997C3.6 7.31997 4.13 7.03997 5 7.03997C5.87 7.03997 6.4 7.28997 7.05 7.63997C7.8 8.01997 8.62 8.43997 10 8.43997C11.38 8.43997 12.2 8.00997 12.95 7.63997C13.6 7.31997 14.13 7.03997 15 7.03997C15.9 7.03997 16.4 7.28997 17.05 7.63997C17.57 7.89997 18.13 8.18997 18.88 8.33997C19.0151 8.36634 19.1543 8.36272 19.2879 8.32937C19.4214 8.29601 19.546 8.23373 19.6528 8.14693C19.7597 8.06013 19.8461 7.95093 19.9061 7.82704C19.9661 7.70316 19.9982 7.56761 20 7.42997V7.33997C20 6.87997 19.66 6.51997 19.21 6.41997C18.75 6.31997 18.38 6.12997 17.95 5.89997C17.2 5.50997 16.35 5.08997 15 5.08997Z" fill="url(#paint0_linear_18_414)"/>
<defs>
<linearGradient id="paint0_linear_18_414" x1="10" y1="0.659973" x2="10" y2="17.34" gradientUnits="userSpaceOnUse">
<stop stop-color="#FFBF00"/>
<stop offset="1" stop-color="#F2A50C"/>
</linearGradient>
</defs>
</svg>
