<svg width="20" height="17" viewBox="0 0 20 17" fill="none" xmlns="http://www.w3.org/2000/svg">
<path d="M17.4599 7C17.3613 7.14578 17.3029 7.31501 17.2906 7.4906C17.2783 7.66618 17.3126 7.84191 17.3899 8C17.6379 8.579 17.8129 9.187 17.9099 9.81C18.1674 11.4201 17.9266 13.0705 17.2199 14.54C17.1341 14.7012 17.0058 14.8358 16.8489 14.9292C16.692 15.0227 16.5125 15.0713 16.3299 15.07H3.67994C3.49631 15.0704 3.31613 15.0202 3.15913 14.9249C3.00214 14.8297 2.87441 14.6931 2.78994 14.53C2.14982 13.2314 1.87408 11.7835 1.99213 10.3406C2.11017 8.89763 2.61756 7.51376 3.46022 6.3365C4.30288 5.15924 5.44922 4.23271 6.77702 3.6557C8.10483 3.07868 9.56433 2.8728 10.9999 3.06C11.7263 3.14538 12.4368 3.33395 13.1099 3.62C13.268 3.69738 13.4438 3.73165 13.6193 3.71936C13.7949 3.70707 13.9642 3.64865 14.1099 3.55C14.2618 3.44995 14.3835 3.31036 14.462 3.14628C14.5404 2.98219 14.5727 2.79982 14.5552 2.61879C14.5377 2.43776 14.4712 2.26492 14.3628 2.11888C14.2543 1.97285 14.1082 1.85914 13.9399 1.79C12.0081 0.961661 9.86444 0.763091 7.81335 1.2225C5.76226 1.68191 3.90808 2.77594 2.5142 4.34919C1.12031 5.92243 0.257592 7.89489 0.0485913 9.98638C-0.160409 12.0779 0.294935 14.182 1.34994 16C1.52445 16.3023 1.77503 16.5536 2.07677 16.7291C2.37852 16.9045 2.72092 16.9979 3.06994 17H16.9199C17.2724 17.0014 17.6189 16.9097 17.9244 16.734C18.23 16.5584 18.4837 16.3052 18.6599 16C19.4323 14.6614 19.884 13.1621 19.9794 11.6196C20.0748 10.0772 19.8114 8.53356 19.2099 7.11C19.1338 6.94776 19.0154 6.80898 18.8672 6.70818C18.719 6.60738 18.5464 6.54826 18.3675 6.53701C18.1886 6.52577 18.01 6.56281 17.8503 6.64426C17.6907 6.72571 17.5558 6.84858 17.4599 7Z" fill="url(#paint0_linear_18_420)"/>
<defs>
<linearGradient id="paint0_linear_18_420" x1="9.99874" y1="0.980713" x2="9.99874" y2="17" gradientUnits="userSpaceOnUse">
<stop stop-color="#FFBF00"/>
<stop offset="1" stop-color="#F2A50C"/>
</linearGradient>
</defs>
</svg>
